HIERARCHY
ROOT Hips
{
	OFFSET -3.958830 18.904000 13.208200
	CHANNELS 6 Xposition Yposition Zposition Zrotation Yrotation Xrotation 
	JOINT LHipJoint
	{
		OFFSET 0.000000 0.000000 0.000000
		CHANNELS 3 Zrotation Yrotation Xrotation
		JOINT LeftUpLeg
		{
			OFFSET 1.800000 -1.400000 0.085000
			CHANNELS 3 Zrotation Yrotation Xrotation
			JOINT LeftLeg
			{
				OFFSET 2.215000 -6.000000 0.000000
				CHANNELS 3 Zrotation Yrotation Xrotation
				JOINT LeftFoot
				{
					OFFSET 2.500000 -6.900000 0.000000
					CHANNELS 3 Zrotation Yrotation Xrotation
					JOINT LeftToeBase
					{
						OFFSET 0.200000 -0.500000 1.950000
						CHANNELS 3 Zrotation Yrotation Xrotation
						End Site
						{
							OFFSET 0.000000 0.000000 0.000000
						}
					}
				}
			}
		}
	}
	JOINT RHipJoint
	{
		OFFSET 0.000000 0.000000 0.000000
		CHANNELS 3 Zrotation Yrotation Xrotation
		JOINT RightUpLeg
		{
			OFFSET -1.800000 -1.400000 0.085000
			CHANNELS 3 Zrotation Yrotation Xrotation
			JOINT RightLeg
			{
				OFFSET -2.215000 -6.000000 0.000000
				CHANNELS 3 Zrotation Yrotation Xrotation
				JOINT RightFoot
				{
					OFFSET -2.500000 -6.900000 0.000000
					CHANNELS 3 Zrotation Yrotation Xrotation
					JOINT RightToeBase
					{
						OFFSET -0.200000 -0.500000 1.950000
						CHANNELS 3 Zrotation Yrotation Xrotation
						End Site
						{
							OFFSET 0.000000 0.000000 0.000000
						}
					}
				}
			}
		}
	}
	JOINT LowerBack
	{
		OFFSET 0.000000 0.000000 0.000000
		CHANNELS 3 Zrotation Yrotation Xrotation
		JOINT Spine
		{
			OFFSET -0.087000 1.940000 -0.288900
			CHANNELS 3 Zrotation Yrotation Xrotation
			JOINT Spine1
			{
				OFFSET 0.000000 1.950000 0.060000
				CHANNELS 3 Zrotation Yrotation Xrotation
				JOINT Neck
				{
					OFFSET 0.000000 0.000000 0.000000
					CHANNELS 3 Zrotation Yrotation Xrotation
					JOINT Neck1
					{
						OFFSET 0.000000 1.600000 0.340000
						CHANNELS 3 Zrotation Yrotation Xrotation
						JOINT Head
						{
							OFFSET 0.000000 1.667000 -0.240000
							CHANNELS 3 Zrotation Yrotation Xrotation
							End Site
							{
								OFFSET 0.000000 0.000000 0.000000
							}
						}
					}
				}
				JOINT LeftShoulder
				{
					OFFSET 0.000000 0.000000 0.000000
					CHANNELS 3 Zrotation Yrotation Xrotation
					JOINT LeftArm
					{
						OFFSET 2.700000 1.550000 -0.730000
						CHANNELS 3 Zrotation Yrotation Xrotation
						JOINT LeftForeArm
						{
							OFFSET 5.450000 0.000000 0.000000
							CHANNELS 3 Zrotation Yrotation Xrotation
							JOINT LeftHand
							{
								OFFSET 3.450000 0.000000 0.000000
								CHANNELS 3 Zrotation Yrotation Xrotation
								JOINT LeftHandIndex1
								{
									OFFSET 0.750000 0.000000 0.000000
									CHANNELS 3 Zrotation Yrotation Xrotation
									End Site
									{
										OFFSET 0.000000 0.000000 0.000000
									}
								}
							}
						}
					}
				}
				JOINT RightShoulder
				{
					OFFSET 0.000000 0.000000 0.000000
					CHANNELS 3 Zrotation Yrotation Xrotation
					JOINT RightArm
					{
						OFFSET -2.700000 1.550000 -0.730000
						CHANNELS 3 Zrotation Yrotation Xrotation
						JOINT RightForeArm
						{
							OFFSET -5.450000 0.000000 0.000000
							CHANNELS 3 Zrotation Yrotation Xrotation
							JOINT RightHand
							{
								OFFSET -3.450000 0.000000 0.000000
								CHANNELS 3 Zrotation Yrotation Xrotation
								JOINT RightHandIndex1
								{
									OFFSET -0.750000 0.000000 0.000000
									CHANNELS 3 Zrotation Yrotation Xrotation
									End Site
									{
										OFFSET 0.000000 0.000000 0.000000
									}
								}
							}
						}
					}
				}
			}
		}
	}
}
MOTION
Frames: 12
Frame Time: 0.016667
-0.456180 17.434370 -6.314350 -3.993725 -9.560578 1.116919 -14.804649 12.687816 2.706097 3.159574 -1.666182 -15.162988 -4.154462 3.867856 7.332592 -0.497154 3.153162 3.671677 0.281630 0.026170 0.113950 18.680803 -11.122937 3.110347 -0.760831 0.151710 -7.715543 8.590732 -4.301290 4.622467 -0.183670 -3.718667 3.271249 0.117470 0.489000 0.223260 -4.607476 -0.164111 -7.058960 15.684230 1.579072 8.372213 -6.066285 2.889205 18.595598 1.986430 -4.496682 -11.277157 -9.716461 5.195308 35.373441 0.162460 1.254630 0.610250 3.372740 4.748816 5.801721 -34.003084 -9.293372 6.361741 121.962106 -50.891334 -87.319297 -4.075839 3.026483 0.115790 0.348960 -0.277430 0.210510 -6.918927 -0.619343 6.776460 24.555366 8.826895 2.545480 -133.503517 45.147345 -97.801761 1.960446 -2.092276 -0.150970 0.182740 0.043850 -0.072670 
-0.461330 17.413570 -6.316620 -3.916097 -9.284390 1.942777 -14.817691 12.681064 2.727010 3.207982 -1.829727 -16.331142 -4.352102 3.923443 7.722128 -0.517132 3.135779 3.668688 0.237460 -0.039190 0.098290 18.668698 -11.099576 3.075646 -0.802703 0.389556 -8.831709 8.808973 -4.342179 5.158974 -0.151256 -3.625156 3.294075 0.080570 0.488200 0.214080 -4.573833 -0.193910 -7.007167 15.061299 1.863830 7.248981 -6.188098 2.978316 19.189139 2.083334 -4.217858 -11.797941 -9.395719 5.966299 36.664315 0.268650 2.121420 1.557660 1.394535 3.903576 6.445672 -38.456112 -5.855485 5.685166 136.562606 -65.139711 -126.480249 -4.044585 3.501452 0.146510 0.341430 -0.280990 0.192410 -5.045656 -0.073291 7.288260 30.400489 6.747090 2.758955 -150.472716 56.016371 -139.376104 1.898595 -2.331538 -0.177240 0.177470 0.067980 -0.090360 
-0.466480 17.379520 -6.325600 -4.045852 -8.243160 3.013206 -14.829583 12.650639 2.778355 3.512085 -2.023801 -18.092665 -4.787032 4.047074 8.275215 -0.480621 3.080732 3.660039 0.187810 -0.111890 0.110900 18.650998 -11.074649 3.084604 -0.567998 0.637687 -9.944035 9.091776 -4.342545 5.352208 -0.125458 -3.503140 3.323839 0.006070 0.441040 0.221430 -4.536728 -0.193689 -7.076926 14.512436 2.223075 7.212227 -5.937567 3.136933 17.616360 2.392700 -3.531068 -11.508715 -8.106653 5.584634 37.269418 -0.898470 3.056970 2.511760 -2.051312 2.099504 5.678505 -43.046067 -3.081725 -1.604334 -157.585818 -79.018462 145.206508 -3.675855 3.481857 0.163330 0.318400 -0.256280 0.155140 -2.320458 1.120224 7.490602 38.084653 3.074404 -2.423384 177.062938 66.037555 164.083038 1.719203 -2.185673 -0.159710 0.124890 0.073110 -0.106030 
-0.461960 17.320620 -6.341340 -4.295230 -7.553284 4.186091 -14.814742 12.652654 2.839428 3.764343 -2.267189 -20.361137 -4.739833 4.153366 9.386701 -0.496501 3.056573 3.650989 0.131980 -0.199460 0.104080 18.656807 -11.047640 3.075078 -0.423478 1.030766 -11.531774 9.496533 -4.437276 6.307888 -0.079348 -3.368213 3.360680 -0.051150 0.439310 0.214670 -4.574330 -0.250146 -7.112759 14.924817 1.937471 7.937944 -6.214916 2.878522 15.039640 2.463289 -4.395162 -10.662769 -9.457039 6.244198 35.929855 -1.141290 3.471410 2.541980 -7.404751 1.405545 5.169273 -46.484199 0.087975 -3.096431 -80.793741 -75.089685 54.085236 -3.984954 3.529879 0.196540 0.302580 -0.257500 0.123200 2.678476 2.324598 6.647621 41.532084 0.844784 -7.375847 135.641982 67.678523 104.138384 2.020977 -1.311959 -0.181030 0.123750 0.104250 -0.121680 
-0.448150 17.265100 -6.374130 -4.815072 -6.625264 4.777247 -14.821093 12.733682 2.933110 4.451846 -2.429836 -22.552303 -4.715398 4.373708 10.973544 -0.538188 3.154131 3.590965 0.065150 -0.315490 0.101790 18.626318 -10.975879 3.101045 -0.287134 1.413425 -12.464661 10.116806 -4.611815 7.174215 -0.053879 -3.286848 3.371776 -0.114880 0.435520 0.217730 -4.526941 -0.516466 -7.255596 15.559711 1.398994 10.286491 -6.479558 2.685082 11.618873 2.704956 -5.223792 -9.710689 -10.865748 6.797755 34.655825 -2.032740 4.265350 1.845990 -13.181661 1.334955 3.390531 -49.295004 2.228944 -8.648367 -53.131565 -59.111551 24.258227 -3.820236 3.555586 0.269970 0.283740 -0.250080 0.080810 7.591913 2.857117 6.528198 45.179292 -0.734146 -7.903454 106.626088 66.857502 64.291861 2.644993 -1.191290 -0.225750 0.131830 0.158090 -0.158300 
-0.435050 17.198760 -6.415290 -5.400141 -6.211079 5.474374 -14.817853 12.819318 3.094475 5.396450 -2.645868 -25.429901 -4.668707 4.728339 13.349791 -0.563705 3.325553 3.505053 0.042110 -0.370900 0.125540 18.598177 -10.912251 3.101967 -0.197598 2.016182 -14.040646 10.328583 -4.837647 9.320428 -0.022157 -3.179922 3.385671 -0.136550 0.426570 0.198650 -4.491862 -0.799458 -7.417301 16.457677 0.669009 13.225095 -6.721757 2.547455 7.243313 2.588862 -6.687057 -8.413312 -13.388408 7.969917 33.088238 -2.439340 5.215640 0.675040 -18.899195 2.464714 1.470605 -50.953099 4.350078 -11.332997 -37.933096 -45.052185 10.434793 -3.868491 3.255433 0.326040 0.254580 -0.243090 0.057160 13.053660 2.839369 5.735882 47.355607 -2.017723 -9.104987 83.618650 61.704046 40.888189 2.427407 -1.759605 -0.267900 0.158160 0.178180 -0.188030 
-0.417660 17.099390 -6.468860 -5.401357 -6.298300 6.770347 -14.885602 12.833090 3.388877 5.892970 -3.166440 -29.602912 -4.630734 5.282452 16.815746 -0.577418 3.655760 3.364521 0.014060 -0.423920 0.145400 18.522942 -10.738340 3.063173 -1.024701 3.140172 -17.195466 10.939988 -5.317859 13.042528 0.024298 -3.151711 3.363707 -0.148190 0.432250 0.182830 -4.294492 -1.185086 -7.578116 15.883633 0.262746 15.866575 -6.048325 2.626802 3.024432 2.386392 -8.131771 -7.106086 -15.638744 9.146961 30.279863 -4.156800 6.979810 -0.658510 -22.276358 5.008198 -0.394413 -53.694555 6.301896 -12.622205 -27.304051 -33.760017 3.642479 -3.946292 3.010066 0.361470 0.251940 -0.251960 0.036550 16.481207 1.667454 4.548979 49.857906 -2.631693 -10.974186 71.908355 56.560826 30.429394 2.305385 -1.809812 -0.317300 0.185990 0.199990 -0.220000 
-0.403740 16.992400 -6.541650 -5.765741 -6.716108 7.774382 -14.995820 12.759779 3.782782 7.547401 -3.483166 -34.222578 -5.436497 6.478802 21.435510 -0.522160 4.406353 3.054563 0.001060 -0.465910 0.193310 18.445078 -10.394404 3.060694 -2.071167 4.719007 -20.451958 11.963219 -6.163826 17.991171 -0.008761 -3.335747 3.252476 -0.171690 0.393740 0.161310 -4.039304 -1.709549 -7.820800 15.362197 -0.241703 19.276074 -4.787243 2.806120 -0.341079 2.162201 -9.797107 -6.480489 -18.817541 10.652830 28.453380 -6.391850 8.807980 -3.191030 -23.485946 7.500144 -1.792729 -57.163017 7.959018 -13.381610 -19.638079 -24.686019 0.227378 -3.982395 2.775640 0.439960 0.201520 -0.216640 0.012520 17.950373 0.857464 3.770353 52.429312 -2.266842 -12.234866 67.286388 55.799300 27.584609 2.320314 -1.723011 -0.357090 0.217360 0.208260 -0.257770 
-0.369710 16.881700 -6.637460 -6.231923 -7.275417 8.037045 -15.148585 12.607810 4.211921 9.314022 -3.552139 -38.799873 -6.070150 8.079576 27.077923 -0.403534 5.457727 2.604607 0.041240 -0.457360 0.295760 18.367012 -9.866608 3.141615 -4.157878 6.866793 -23.681226 13.976909 -7.663778 24.065601 -0.166250 -3.940591 2.969098 -0.194840 0.257070 0.153120 -3.735491 -2.358941 -8.139713 14.937394 -0.959441 24.498974 -3.389852 3.122721 -3.144419 2.153098 -11.504480 -6.453360 -22.486345 12.253863 26.785229 -10.071230 10.620590 -8.281010 -23.269136 9.714787 -2.691913 -59.311200 9.888184 -13.900575 -19.248928 -17.966222 -0.839276 -3.932516 2.664283 0.553640 0.086280 -0.124670 -0.029870 17.739935 0.614740 3.369566 54.532389 -0.694496 -12.138747 71.950396 58.652585 32.252500 2.438539 -1.631052 -0.347140 0.199130 0.187660 -0.310960 
-0.329210 16.751980 -6.745260 -5.990927 -7.333491 8.251177 -15.316987 12.203649 4.658126 10.530353 -3.707806 -43.757597 -6.607930 9.986107 33.077687 -0.212475 6.692770 2.120473 0.071980 -0.430570 0.352690 18.328565 -9.195341 3.340975 -8.403902 9.261912 -27.379767 17.889780 -10.064197 29.799267 -0.412655 -5.060241 2.520118 -0.207470 0.153650 0.142410 -3.490744 -2.801488 -8.512789 13.686606 -1.292931 29.037668 -1.814496 3.383183 -4.387510 1.984453 -12.425974 -7.018489 -24.669039 13.877623 25.702844 -12.874270 11.811890 -11.830970 -21.730009 10.379748 -2.051359 -60.007522 13.285308 -15.658544 -24.968591 -14.852095 -1.179187 -3.844083 2.673118 0.615260 -0.001610 -0.054620 -0.049290 16.805451 1.497771 3.228361 55.640019 1.606693 -11.287098 82.669010 63.123606 42.071938 2.659075 -1.457039 -0.324000 0.179840 0.162370 -0.331600 
-0.280940 16.580410 -6.828140 -5.681265 -6.685048 8.121695 -15.416536 11.637842 4.986065 11.381010 -3.672872 -48.215890 -6.479061 11.915501 39.148545 0.005357 7.973347 1.643460 0.111080 -0.394120 0.406030 18.364733 -8.560235 3.647214 -14.748212 11.162213 -29.811871 25.076161 -13.402853 32.541739 -0.745558 -6.471772 1.983209 -0.209040 0.072820 0.164220 -3.457476 -2.836209 -8.884250 13.578130 -1.566192 33.004041 -1.145493 3.569859 -5.123359 1.753588 -12.877225 -7.430076 -25.511536 15.698659 25.387033 -15.311900 12.737220 -14.341260 -19.623317 11.241500 -0.953195 -58.040006 18.062406 -17.384514 -34.313737 -12.880095 -1.557801 -3.754409 2.758057 0.646750 -0.055890 0.005650 -0.064120 15.231311 1.797130 2.681749 55.441291 4.981804 -10.242543 102.640744 66.129867 61.155932 2.903040 -0.981420 -0.284160 0.144600 0.141480 -0.342040 
-0.262940 16.380320 -6.899700 -4.898044 -6.006814 6.900483 -15.519017 11.159566 5.233275 12.968668 -2.855801 -50.950215 -8.280318 14.842295 43.935228 0.262517 9.371120 1.126491 0.149320 -0.344260 0.442060 18.368750 -7.985230 3.929421 -21.774883 12.358590 -30.083445 33.438031 -16.555425 32.596955 -1.071992 -7.712463 1.526958 -0.197090 -0.012280 0.191810 -3.355242 -2.902040 -9.251151 12.594750 -0.935166 37.425679 0.236916 4.426263 -5.234363 1.346420 -12.954709 -7.962774 -25.472262 17.083168 26.487097 -17.156430 12.865600 -16.158860 -17.904232 10.779978 0.751633 -53.606916 23.359471 -18.385324 -44.705992 -11.503165 -2.196765 -3.643564 2.886269 0.659790 -0.097270 0.057700 -0.090540 14.445455 3.536176 2.345298 52.554483 9.108483 -10.496730 130.899356 65.777221 95.950769 2.452428 -0.970303 -0.233300 0.094100 0.131850 -0.349480 
